<?xml version="1.0" encoding="UTF-8"?>
<svg width="309px" height="17px" viewBox="0 0 309 17" version="1.1" xmlns="http://www.w3.org/2000/svg" xmlns:xlink="http://www.w3.org/1999/xlink">
    <!-- Generator: Sketch 46.2 (44496) - http://www.bohemiancoding.com/sketch -->
    <title>arrow</title>
    <desc>Created with Sketch.</desc>
    <defs></defs>
    <g id="Symbols" stroke="none" stroke-width="1" fill="none" fill-rule="evenodd" stroke-linecap="square">
        <g id="back" transform="translate(0.000000, -6.000000)" stroke="#000000">
            <g id="arrow">
                <g transform="translate(0.000000, 6.000000)">
                    <path d="M1,8.5 L122.539876,8.5 M186.324367,8.5 L296.5,8.5" id="Line-2"></path>
                    <g id="Group-4">
                        <path d="M0.5,8.5 L12.5,0.5" id="Line-3"></path>
                        <path d="M0.5,16.5 L12.5,8.5" id="Line-3-Copy" transform="translate(6.500000, 12.500000) scale(1, -1) translate(-6.500000, -12.500000) "></path>
                    </g>
                    <g id="Group-4-Copy" transform="translate(262.000000, 0.000000)">
                        <path d="M0.5,8.5 L12.5,0.5" id="Line-3"></path>
                        <path d="M0.5,16.5 L12.5,8.5" id="Line-3-Copy" transform="translate(6.500000, 12.500000) scale(1, -1) translate(-6.500000, -12.500000) "></path>
                    </g>
                    <g id="Group-4-Copy-2" transform="translate(296.000000, 0.000000)">
                        <path d="M0.5,8.5 L12.5,0.5" id="Line-3"></path>
                        <path d="M0.5,16.5 L12.5,8.5" id="Line-3-Copy" transform="translate(6.500000, 12.500000) scale(1, -1) translate(-6.500000, -12.500000) "></path>
                    </g>
                    <g id="Group-4-Copy-3" transform="translate(279.000000, 0.000000)">
                        <path d="M0.5,8.5 L12.5,0.5" id="Line-3"></path>
                        <path d="M0.5,16.5 L12.5,8.5" id="Line-3-Copy" transform="translate(6.500000, 12.500000) scale(1, -1) translate(-6.500000, -12.500000) "></path>
                    </g>
                </g>
            </g>
        </g>
    </g>
</svg>